<svg width="274" height="33" viewBox="0 0 274 33" fill="none" xmlns="http://www.w3.org/2000/svg">
<mask id="mask0_72_28844" style="mask-type:luminance" maskUnits="userSpaceOnUse" x="0" y="1" width="32" height="32">
<path d="M0 1H32V33H0V1Z" fill="white"/>
</mask>
<g mask="url(#mask0_72_28844)">
<path d="M25.2 2.5H30.1074L19.3874 14.7834L32 31.5011H22.1257L14.3863 21.364L5.54057 31.5011H0.628571L12.0937 18.3583L0 2.50229H10.1257L17.1109 11.7663L25.2 2.5ZM23.4743 28.5571H26.1943L8.64 5.29086H5.72343L23.4743 28.5571Z" fill="white"/>
</g>
<path d="M87.1877 0H57.8207C57.3378 0 56.8747 0.191745 56.5333 0.533053C56.1918 0.874361 56 1.33727 56 1.81996V31.1772C56 31.6599 56.1918 32.1228 56.5333 32.4641C56.8747 32.8055 57.3378 32.9972 57.8207 32.9972H73.6246V20.2211H69.3277V15.24H73.6246V11.5665C73.6246 7.30502 76.2297 4.98388 80.0336 4.98388C81.3173 4.9793 82.6002 5.04473 83.8767 5.17987V9.63457H81.2465C79.1765 9.63457 78.7759 10.6173 78.7759 12.0593V15.24H83.7087L83.0672 20.2211H78.7759V33H87.1793C87.6619 32.9993 88.1246 32.8073 88.4659 32.4661C88.8072 32.125 88.9993 31.6625 89 31.18V1.82276C89.0007 1.34104 88.8104 0.878678 88.4707 0.537005C88.131 0.195333 87.6696 0.00222273 87.1877 0Z" fill="white"/>
<path d="M131.8 23.5714L143.996 16.5L131.8 9.42857V23.5714ZM158.966 5.115C159.271 6.22286 159.483 7.70786 159.624 9.59357C159.788 11.4793 159.859 13.1057 159.859 14.52L160 16.5C160 21.6621 159.624 25.4571 158.966 27.885C158.378 30.0064 157.015 31.3736 154.9 31.9629C153.796 32.2693 151.775 32.4814 148.673 32.6229C145.618 32.7879 142.821 32.8586 140.236 32.8586L136.5 33C126.653 33 120.52 32.6229 118.1 31.9629C115.985 31.3736 114.622 30.0064 114.034 27.885C113.729 26.7771 113.517 25.2921 113.376 23.4064C113.212 21.5207 113.141 19.8943 113.141 18.48L113 16.5C113 11.3379 113.376 7.54286 114.034 5.115C114.622 2.99357 115.985 1.62643 118.1 1.03714C119.204 0.730714 121.225 0.518571 124.327 0.377143C127.382 0.212142 130.178 0.141428 132.763 0.141428L136.5 0C146.347 0 152.48 0.377143 154.9 1.03714C157.015 1.62643 158.378 2.99357 158.966 5.115Z" fill="white"/>
<path d="M202.197 0C204.053 0.00494995 204.995 0.0148499 205.809 0.0379496L206.129 0.0494995C206.498 0.0626994 206.863 0.0791992 207.304 0.098999C209.059 0.181498 210.257 0.458696 211.308 0.866242C212.397 1.28534 213.315 1.85293 214.232 2.76867C215.071 3.59322 215.721 4.59104 216.134 5.69245C216.542 6.74349 216.819 7.94137 216.902 9.69861C216.921 10.1375 216.938 10.5021 216.951 10.8734L216.961 11.1935C216.986 12.0053 216.996 12.9474 216.999 14.8037L217.001 16.0345V18.196C217.005 19.3995 216.992 20.603 216.963 21.8062L216.953 22.1263C216.94 22.4975 216.923 22.8622 216.903 23.3011C216.821 25.0583 216.54 26.2545 216.134 27.3072C215.721 28.4086 215.071 29.4065 214.232 30.231C213.407 31.0703 212.41 31.7196 211.308 32.1334C210.257 32.541 209.059 32.8182 207.304 32.9007L206.129 32.9502L205.809 32.9601C204.995 32.9832 204.053 32.9947 202.197 32.998L200.966 32.9997H198.806C197.602 33.0039 196.398 32.9913 195.194 32.9617L194.874 32.9518C194.483 32.937 194.091 32.92 193.7 32.9007C191.944 32.8182 190.746 32.541 189.693 32.1334C188.593 31.7194 187.595 31.0701 186.771 30.231C185.931 29.4066 185.282 28.4088 184.867 27.3072C184.46 26.2562 184.182 25.0583 184.1 23.3011L184.05 22.1263L184.042 21.8062C184.012 20.6031 183.998 19.3995 184.001 18.196V14.8037C183.996 13.6002 184.008 12.3967 184.037 11.1935L184.049 10.8734C184.062 10.5021 184.078 10.1375 184.098 9.69861C184.181 7.94137 184.458 6.74514 184.866 5.69245C185.281 4.59058 185.932 3.59274 186.773 2.76867C187.597 1.92974 188.593 1.28051 189.693 0.866242C190.746 0.458696 191.942 0.181498 193.7 0.098999C194.138 0.0791992 194.505 0.0626994 194.874 0.0494995L195.194 0.0395995C196.398 0.0102839 197.601 -0.00236723 198.805 0.00164986L202.197 0ZM200.501 8.24992C198.313 8.24992 196.214 9.11911 194.667 10.6663C193.12 12.2134 192.251 14.3118 192.251 16.4998C192.251 18.6879 193.12 20.7863 194.667 22.3334C196.214 23.8806 198.313 24.7498 200.501 24.7498C202.689 24.7498 204.787 23.8806 206.334 22.3334C207.882 20.7863 208.751 18.6879 208.751 16.4998C208.751 14.3118 207.882 12.2134 206.334 10.6663C204.787 9.11911 202.689 8.24992 200.501 8.24992ZM200.501 11.5499C201.151 11.5498 201.795 11.6777 202.395 11.9264C202.996 12.175 203.541 12.5395 204.001 12.9991C204.461 13.4587 204.826 14.0043 205.074 14.6048C205.323 15.2053 205.451 15.849 205.452 16.499C205.452 17.1491 205.324 17.7927 205.075 18.3933C204.826 18.9939 204.462 19.5397 204.002 19.9994C203.543 20.4591 202.997 20.8238 202.397 21.0727C201.796 21.3215 201.152 21.4497 200.502 21.4498C199.19 21.4498 197.931 20.9283 197.002 20C196.074 19.0717 195.552 17.8127 195.552 16.4998C195.552 15.187 196.074 13.928 197.002 12.9997C197.931 12.0714 199.19 11.5499 200.502 11.5499M209.165 5.77494C208.618 5.77494 208.093 5.99224 207.706 6.37903C207.32 6.76582 207.102 7.29042 207.102 7.83743C207.102 8.38443 207.32 8.90903 207.706 9.29582C208.093 9.68261 208.618 9.89991 209.165 9.89991C209.712 9.89991 210.236 9.68261 210.623 9.29582C211.01 8.90903 211.227 8.38443 211.227 7.83743C211.227 7.29042 211.01 6.76582 210.623 6.37903C210.236 5.99224 209.712 5.77494 209.165 5.77494Z" fill="white"/>
<path d="M270.335 0C271.307 0 272.24 0.386308 272.928 1.07394C273.615 1.76157 274.001 2.69421 274.001 3.66667V29.3333C274.001 30.3058 273.615 31.2384 272.928 31.9261C272.24 32.6137 271.307 33 270.335 33H244.668C243.696 33 242.763 32.6137 242.075 31.9261C241.388 31.2384 241.001 30.3058 241.001 29.3333V3.66667C241.001 2.69421 241.388 1.76157 242.075 1.07394C242.763 0.386308 243.696 0 244.668 0H270.335ZM269.418 28.4167V18.7C269.418 17.1149 268.788 15.5947 267.668 14.4739C266.547 13.353 265.027 12.7233 263.441 12.7233C261.883 12.7233 260.068 13.6767 259.188 15.1067V13.0717H254.073V28.4167H259.188V19.3783C259.188 17.9667 260.325 16.8117 261.736 16.8117C262.417 16.8117 263.07 17.0821 263.551 17.5634C264.033 18.0448 264.303 18.6976 264.303 19.3783V28.4167H269.418ZM248.115 10.1933C248.932 10.1933 249.715 9.86884 250.293 9.29122C250.87 8.71361 251.195 7.9302 251.195 7.11333C251.195 5.40833 249.82 4.015 248.115 4.015C247.293 4.015 246.505 4.34143 245.924 4.92248C245.343 5.50353 245.016 6.2916 245.016 7.11333C245.016 8.81833 246.41 10.1933 248.115 10.1933ZM250.663 28.4167V13.0717H245.585V28.4167H250.663Z" fill="white"/>
</svg>
