<svg width="1388" height="552" viewBox="0 0 1388 552" fill="none" xmlns="http://www.w3.org/2000/svg">
<path d="M174.344 290.644L0 275.345L23.701 0L205.747 67.9173L174.344 290.644Z" fill="#DCE9C0"/>
<path d="M368.54 261.517L252.31 298.486L194.686 103.556L319.842 64.4163L368.54 261.517Z" fill="#BCD9AA"/>
<path d="M99.8459 68.7231L95.6798 111.259L118.751 109.859L122.917 67.3228L153.725 65.4673L149.559 108.003L172.629 106.603L174.345 134.89L146.653 136.57L143.572 168.954L166.643 167.553L168.358 195.841L140.876 197.486L136.605 241.527L105.797 243.383L110.069 199.341L86.9976 200.742L82.7265 244.783L51.9186 246.639L56.1897 202.597L32.9088 203.998L31.1934 175.71L59.0605 174.03L62.1413 141.647L38.8603 143.047L37.1449 114.76L65.012 113.079L69.178 70.5436L99.7759 68.6881L99.8459 68.7231ZM89.9033 172.245L112.974 170.844L115.845 138.461L92.7741 139.861L89.9033 172.245Z" fill="#4556A1"/>
<path d="M318.056 515.226L235.75 505.039L259.871 343.823L343.402 384.923L318.056 515.226Z" fill="#DFA78C"/>
<path d="M249.159 478.573L252.1 468.21C259.627 474.827 266.944 479.168 274.05 481.198C277.026 482.039 280.037 482.284 283.083 481.934C286.128 481.583 288.649 480.533 290.68 478.783C292.71 477.032 294.04 474.897 294.776 472.411C295.616 469.47 295.441 466.46 294.251 463.344C293.06 460.228 290.259 456.377 285.848 451.791L281.192 447.03L276.501 442.198C268.274 433.551 265.438 424.904 267.889 416.222C269.709 409.85 273.455 405.124 279.092 402.043C284.763 398.962 292.255 398.752 301.602 401.413C307.624 403.128 313.19 405.684 318.302 409.045L315.606 418.427C310.11 414.261 304.403 411.321 298.522 409.64C293.865 408.31 289.699 408.485 286.093 410.13C282.488 411.776 280.177 414.331 279.197 417.797C278.216 421.263 278.497 424.449 280.072 427.39C281.647 430.295 283.888 433.201 286.759 436.107L290.295 439.853L294.636 444.579L298.417 448.465C306.049 456.762 308.639 465.199 306.189 473.741C304.333 480.288 300.342 485.224 294.251 488.55C288.159 491.876 279.862 492.016 269.394 489.04C266.068 488.095 262.953 486.905 260.082 485.469C257.211 484.034 253.535 481.723 249.124 478.573H249.159Z" fill="#8C2724"/>
<path d="M316.866 132.088L299.922 136.184C295.686 125.122 288.929 120.675 279.652 122.916C273.665 124.351 269.499 126.872 267.224 130.443C264.913 134.014 264.458 138.67 265.823 144.376C266.839 148.613 269.429 152.218 273.63 155.229L319.527 186.947C327.999 192.829 333.286 200.076 335.351 208.653L337.382 217.02C339.622 226.297 338.187 235.085 333.146 243.417C328.104 251.749 320.892 257.07 311.475 259.346L294.531 263.442C283.223 266.173 274.05 265.402 266.979 261.096C259.907 256.825 254.971 248.983 252.24 237.535L269.394 233.404L270.094 236.275C271.215 240.896 273.84 244.012 277.971 245.622C282.102 247.233 286.269 247.513 290.505 246.498C296.491 245.062 300.482 242.542 302.408 238.971C304.368 235.4 304.648 230.849 303.318 225.247C302.268 220.906 299.677 217.265 295.511 214.394L249.614 182.676C241.177 176.935 235.891 169.688 233.79 160.971L231.76 152.604C229.519 143.361 230.954 134.539 235.996 126.207C241.037 117.875 248.249 112.553 257.666 110.278L274.611 106.182C295.966 101.035 310.075 109.683 316.936 132.088H316.866Z" fill="#FAEA55"/>
<path d="M1102.19 220.451L999.19 201.161L1031.08 41.2756L1141.71 62.491L1102.19 220.451Z" fill="#F5F8E2"/>
<path d="M1094.98 136.64L1094.31 124.772C1094.24 123.721 1094.1 122.671 1093.93 121.621C1092.77 112.519 1087.83 106.847 1079.15 104.607L1061.19 99.9854L1051 139.545L1081.53 147.387L1080.31 152.149L1049.78 144.307L1038.86 186.738L1056.82 191.359C1058.81 191.884 1060.77 192.164 1062.7 192.199C1069.14 192.164 1074.78 188.418 1079.64 180.961L1086.12 170.948L1090.74 172.139L1082.27 202.492L1002.8 182.046L1003.92 177.74L1016.63 180.996L1038.93 94.2089L1026.22 90.9531L1027.34 86.647L1106.81 107.092L1099.6 137.76L1094.98 136.57V136.64Z" fill="#916CA9"/>
<path d="M227.349 551.916L69.7036 548.626L38.0205 374.071L206.659 350.51L227.349 551.916Z" fill="#F5F8E6"/>
<path d="M106.917 411.46C105.307 412.265 103.381 414.295 101.141 417.516C98.9002 420.737 96.8697 424.973 94.9792 430.189C93.1237 435.406 91.6534 441.497 90.6381 448.499C89.6228 455.501 89.5528 463.203 90.498 471.535C91.5833 481.232 93.5788 489.775 96.4846 497.232C99.3903 504.654 102.926 510.815 107.092 515.611C111.258 520.443 116.02 523.908 121.411 526.079C126.767 528.214 132.474 528.915 138.53 528.18C144.692 527.269 149.873 525.379 154.109 522.438C158.345 519.497 161.391 516.697 163.282 514.001C167.133 508.609 169.023 500.417 168.953 489.425C168.848 478.432 167.833 465.163 165.872 449.549C164.367 437.576 163.072 428.159 161.951 421.297C160.831 414.435 159.711 410.269 158.555 408.834C158.38 408.379 157.47 408.064 155.86 407.959C154.249 407.854 152.394 407.889 150.363 408.099C148.298 408.309 146.232 408.519 144.167 408.799C142.101 409.079 140.596 409.324 139.651 409.534C138.705 409.779 138.04 409.534 137.725 408.764C137.375 408.029 137.165 407.259 137.095 406.558C137.025 405.963 137.165 405.333 137.515 404.668C137.865 404.003 138.32 403.513 138.915 403.198C144.237 402.637 150.048 402.182 156.315 401.762C162.581 401.342 168.323 400.817 173.539 400.152C177.775 399.627 181.801 399.032 185.582 398.366C189.363 397.701 193.249 397.001 197.205 396.266C198.326 396.371 198.991 397.141 199.166 398.611C199.376 400.187 198.921 401.167 197.87 401.552C196.82 401.937 195.525 402.147 193.984 402.217C192.444 402.287 190.904 402.427 189.328 402.602C187.753 402.778 186.528 403.373 185.687 404.353C185.267 405.893 185.022 408.834 184.952 413.21C184.882 417.586 185.057 422.978 185.407 429.349C185.792 435.756 186.317 443.073 187.053 451.265C187.788 459.457 188.733 468.209 189.888 477.522C191.149 487.674 192.304 495.936 193.284 502.238C194.265 508.574 195.21 513.546 196.155 517.187C197.1 520.828 198.046 523.383 198.956 524.854C199.866 526.324 200.916 527.304 202.107 527.794C203.507 528.215 204.872 528.6 206.203 528.95C207.533 529.265 209.038 529.335 210.754 529.125C211.489 529.02 212.259 528.915 213.099 528.74C213.94 528.565 214.395 528.775 214.465 529.405C214.745 531.715 213.274 533.046 209.984 533.466C206.238 533.921 202.807 533.571 199.691 532.346C196.575 531.12 194.475 529.86 193.319 528.53C192.374 528.775 191.079 529.09 189.468 529.475C187.858 529.86 186.212 530.21 184.532 530.56C182.852 530.875 181.311 531.225 179.876 531.505C178.44 531.82 177.425 531.995 176.83 532.065C175.85 532.171 175.08 532.206 174.45 532.065C173.819 531.96 173.294 531.4 172.874 530.42C172.454 529.44 172.034 527.934 171.649 525.869C171.264 523.838 170.844 520.933 170.388 517.187C166.117 522.403 160.656 527.024 153.969 531.12C147.283 535.216 138.88 537.947 128.728 539.347C120.956 539.943 113.569 539.347 106.567 537.632C99.6004 535.881 93.3338 532.906 87.8374 528.74C82.341 524.574 77.7548 519.112 74.0789 512.32C70.4029 505.529 68.0223 497.407 66.9721 487.954C66.3069 481.758 66.727 475.106 68.1623 467.999C69.5977 460.892 71.5582 454.101 73.9738 447.624C76.4245 441.182 79.0501 435.371 81.8509 430.225C84.6516 425.078 86.9972 421.402 88.9577 419.197C85.3518 419.757 81.7458 420.387 78.2099 421.017C74.674 421.647 71.4882 422.418 68.6525 423.328C65.8167 424.238 63.4712 425.253 61.5807 426.444C59.6902 427.634 58.6049 428.999 58.3248 430.645C58.3248 430.89 58.0798 431.03 57.4496 431.135C57.0995 431.17 56.7844 431.135 56.5394 431.065C56.3643 429.734 56.2243 428.439 56.1543 427.144C56.0493 425.883 56.0143 424.378 56.0493 422.628C56.0843 421.017 56.1193 419.652 56.1543 418.462C56.1893 417.306 56.4344 416.011 56.8545 414.576C57.1696 413.315 57.7297 412.58 58.5349 412.44C59.3051 412.265 60.3904 412.23 61.7557 412.3C62.876 412.3 64.7665 412.23 67.4622 412.125C70.1579 412.055 73.1336 411.88 76.4245 411.635C79.7153 411.425 83.0762 411.18 86.472 410.935C89.8679 410.689 92.8437 410.409 95.3993 410.094C97.955 409.779 100.02 409.464 101.281 409.184C102.541 408.904 104.292 408.484 106.567 407.959L106.987 411.39L106.917 411.46Z" fill="#A12E7E"/>
<path d="M963.972 247.269L859.4 254.27L850.508 91.4439L962.956 84.4421L963.972 247.269Z" fill="#FEF8EC"/>
<path d="M939.431 182.291C939.431 184.462 939.291 188.103 939.045 193.144H937.68C937.19 193.144 935.965 193.074 934.039 192.899C932.114 192.724 929.943 192.654 927.492 192.654L875.154 192.269C873.719 192.269 873.019 191.884 873.019 191.148C873.019 190.553 874.139 190.168 876.414 190.028C879.6 189.853 881.526 189.503 882.156 188.943C882.786 188.383 883.101 186.807 883.101 184.217V113.394C883.101 110.278 882.786 108.492 882.156 107.967C881.526 107.477 879.285 107.197 875.399 107.197C873.789 107.197 873.019 106.742 873.019 105.797C873.019 105.026 873.509 104.676 874.524 104.676H875.644C878.41 104.921 883.906 105.061 892.168 105.061C892.939 105.061 894.409 104.991 896.58 104.886C898.75 104.746 900.571 104.711 902.006 104.711H903.406C904.912 104.711 905.682 105.131 905.682 105.972C905.682 106.462 905.437 106.777 904.982 106.917C904.527 107.057 903.056 107.162 900.641 107.232C898.19 107.302 896.755 107.722 896.299 108.422C895.844 109.122 895.599 111.328 895.599 115.039V189.398C897.875 189.468 901.026 189.538 905.052 189.538C914.889 189.538 921.821 189.048 925.847 188.033C929.873 187.017 932.604 185.127 934.039 182.361C935.474 179.595 936.315 175.85 936.56 171.158C936.63 170.073 937.12 169.513 937.995 169.513C939.045 169.513 939.536 170.143 939.431 171.403V182.361V182.291Z" fill="#49AD58"/>
<path d="M1212.67 459.072L1086.64 466.074L1075.89 303.248L1211.45 296.246L1212.67 459.072Z" fill="#F5F8E6"/>
<path d="M1103.8 441.813V315.781H1131.87V367.209L1177.25 315.781H1201.96L1145.84 378.797L1201.96 441.813H1173.88L1131.87 392.731V441.813H1103.8Z" fill="#DA355B"/>
<path d="M458.617 239.426L366.193 213.134L373.02 75.7942L483.263 103.871L458.617 239.426Z" fill="#F5F8E6"/>
<path d="M437.088 194.683C441.289 195.138 443.914 195.804 445 196.714C446.085 197.624 446.505 199.165 446.295 201.335C446.085 203.506 445.315 205.046 444.054 205.746C442.794 206.446 440.063 206.621 435.897 206.166L386.36 200.985L382.509 200.6C380.548 200.39 379.113 199.76 378.168 198.674C377.222 197.589 376.872 196.049 377.082 194.088C377.327 191.918 378.063 190.482 379.358 189.817C380.653 189.152 383.384 189.047 387.55 189.467L406 191.393L413.702 117.874L395.252 115.948C391.156 115.528 388.565 114.828 387.375 113.848C386.185 112.868 385.73 111.257 385.975 109.052C386.185 107.056 386.85 105.621 388.005 104.78C389.16 103.94 390.736 103.625 392.801 103.835L396.477 104.22L446.015 109.402L449.866 109.787C451.826 109.997 453.262 110.627 454.172 111.712C455.082 112.798 455.432 114.303 455.222 116.263C454.977 118.504 454.207 119.974 452.912 120.674C451.616 121.375 448.886 121.55 444.825 121.095L426.375 119.169L418.673 192.688L437.123 194.613L437.088 194.683Z" fill="#67549E"/>
<path d="M688.871 252.308L551.356 268.693L548.275 108.422L663.42 98.6541L688.871 252.308Z" fill="#333A49"/>
<path d="M626.415 130.373L659.499 128.378L659.779 132.789L646.685 133.594L652.357 226.648L643.114 228.853L575.582 159.15L579.748 227.453L589.236 226.893C591.546 226.963 593.122 228.363 593.927 231.059L560.003 233.124L559.723 228.713L572.816 227.908L567.39 138.46L554.297 139.265L554.017 134.854L581.709 133.174L643.639 197.485L639.788 134.084L626.695 134.889L626.415 130.478V130.373Z" fill="white"/>
<path d="M511.865 491L376.206 518.657L359.892 359.226L479.027 360.522L511.865 491Z" fill="#6E78A0"/>
<path d="M460.333 479.866L462.329 493.73L394.306 503.567L376.102 377.57L442.864 367.942L444.684 380.616L394.306 387.897L400.468 430.678L445.769 424.132L447.59 436.735L402.288 443.282L408.66 487.393L460.298 479.936L460.333 479.866Z" fill="white"/>
<path d="M694.892 531.402L546.909 535.673L575.862 336.787L710.191 333.566L694.892 531.402Z" fill="#C94739"/>
<path d="M678.123 493.66C668.041 503.288 653.617 508.084 634.852 508.084C618.713 508.084 604.954 504.303 593.577 496.776C593.577 499.297 593.437 501.292 593.121 502.763C592.386 505.143 590.006 506.299 586.015 506.299V459.247H594.662C595.257 467.089 596.867 474.055 599.528 480.112C605.9 494.466 616.893 501.642 632.612 501.642C636.743 501.642 640.524 501.047 643.919 499.857C653.372 496.321 658.133 489.214 658.133 478.536C658.133 475.421 657.468 472.41 656.138 469.434C653.022 463.203 645.11 456.796 632.401 450.109C618.188 442.862 610.206 438.661 608.42 437.471C594.347 428.754 587.345 418.251 587.345 405.963C587.345 397.666 590.216 390.489 595.992 384.432C605.025 375.12 618.468 370.464 636.393 370.464C650.011 370.464 662.964 373.335 675.217 379.111C675.217 377.781 675.287 376.59 675.427 375.575C676.163 372.774 678.613 371.374 682.744 371.374V411.529H674.097C673.957 403.547 672.032 396.651 668.321 390.874C662.264 381.702 653.162 377.116 641.014 377.116C637.898 377.116 634.957 377.571 632.121 378.446C623.684 381.247 619.483 387.023 619.483 395.74C619.483 399.136 620.218 402.392 621.689 405.508C624.805 411.879 632.577 418.321 645.005 424.833C658.623 432.08 666.395 436.246 668.321 437.261C681.764 445.978 688.521 456.516 688.521 468.769C688.521 478.536 685.055 486.834 678.088 493.625L678.123 493.66Z" fill="white"/>
<path d="M870.217 440.447L793.267 479.867L713.342 387.549L809.231 323.097L870.217 440.447Z" fill="#33644A"/>
<path d="M741.945 406.349L773.068 386.499L774.854 389.3L766.557 394.586L789.382 430.4C791.903 434.356 794.389 437.542 796.804 439.958C803.316 446.504 810.073 447.555 817.04 443.109C828.067 435.967 829.048 425.219 819.98 410.865L797.154 375.051L788.857 380.338L787.072 377.537L807.517 364.514L809.302 367.314L801.005 372.601L823.446 407.785C826.597 412.686 828.697 417.237 829.783 421.403C832.303 431.766 827.997 440.483 816.864 447.59C799.465 458.583 785.637 456.237 775.379 440.483L752.028 403.864L743.731 409.15L741.945 406.349Z" fill="white"/>
<path d="M1030.21 522.648L894.724 493.976L943.316 341.267L1055.48 368.994L1030.21 522.648Z" fill="#DFE7E5"/>
<path d="M972.653 490.089C957.354 485.923 946.326 477.626 939.64 465.268C933.408 453.61 932.148 440.936 935.859 427.318C939.01 415.8 945.101 406.523 954.168 399.486C966.947 389.683 982.176 387.233 999.925 392.064C1011.02 395.075 1020.48 400.326 1028.28 407.783C1028.63 406.067 1029.05 404.702 1029.58 403.722C1030.56 402.181 1032.45 401.796 1035.18 402.532L1027.16 433.865L1021.63 432.359C1021.63 425.778 1021.04 420.246 1019.88 415.73C1017.36 406.313 1011.13 400.256 1001.19 397.525C982.386 392.519 968.977 404.457 960.96 433.339C958.545 442.197 957.144 449.829 956.759 456.165C955.989 472.269 962.291 482.177 975.699 485.818C979.06 486.728 982.246 487.218 985.186 487.218C995.864 487.183 1005.14 480.356 1013.05 466.738L1018.27 468.173L1009.76 499.366C1008.61 499.051 1007.7 498.701 1007 498.281C1005.21 497.336 1004.93 494.885 1006.12 490.894C994.674 493.345 983.541 493.065 972.653 490.089Z" fill="#00A7CD"/>
<path d="M835.418 224.687L697.833 209.213L731.442 52.5133L845.781 69.2826L835.418 224.687Z" fill="#F5F8E2"/>
<path d="M804.575 144.271L804.015 147.562L796.138 146.196L790.956 176.409L776.708 171.333C770.966 172.838 764.84 173.048 758.363 171.928C750.206 170.528 743.309 167.307 737.673 162.266C728.395 153.758 724.999 142.275 727.485 127.817C729.411 116.579 734.277 108.142 742.084 102.47C750.206 96.7989 759.833 94.9084 770.896 96.7989C777.023 97.8491 782.694 100.02 787.876 103.346L799.674 102.995L795.753 128.797L792.007 128.167V127.922C791.587 112.098 785.6 103.205 774.012 101.245C773.032 101.07 772.052 100.965 771.071 100.86C758.153 100.055 749.856 110.277 746.215 131.563C744.99 138.67 744.604 144.761 745.095 149.837C746.145 160.69 751.606 166.922 761.479 168.637C766.59 169.512 771.246 168.812 775.447 166.537L779.403 143.361L769.076 141.61L769.636 138.319L804.575 144.306V144.271Z" fill="#5B5B45"/>
<path d="M1388 441.637L1313.68 507.664L1249.75 402.672L1312.8 300.446L1388 441.637Z" fill="#746757"/>
<path d="M1354.64 407.784C1360.06 414.996 1361.39 423.153 1358.63 432.255C1355.86 441.358 1349.28 449.83 1338.74 457.707C1332.69 462.258 1326.98 465.689 1321.66 467.999C1316.34 470.31 1311.08 472.131 1305.94 473.426L1292.78 455.851L1294.84 454.311C1301.07 454.486 1307.27 453.611 1313.36 451.65C1319.45 449.69 1324.74 447.029 1329.22 443.703C1330.37 442.828 1331.81 441.603 1333.53 440.027C1335.24 438.452 1336.54 436.947 1337.38 435.616C1338.39 433.936 1339.02 432.325 1339.3 430.715C1339.58 429.105 1339.06 427.459 1337.76 425.709C1336.57 424.098 1334.82 423.223 1332.62 423.083C1330.41 422.943 1327.71 423.538 1324.63 424.868C1321.38 426.269 1318.02 427.844 1314.52 429.56C1311.01 431.275 1307.58 432.711 1304.22 433.831C1296.56 436.456 1290.08 437.052 1284.79 435.651C1279.51 434.251 1274.96 430.995 1271.14 425.919C1266.03 419.092 1264.91 411.215 1267.81 402.323C1270.72 393.43 1276.95 385.343 1286.58 378.167C1291.41 374.561 1296.52 371.445 1301.95 368.854C1307.37 366.263 1312.31 364.373 1316.83 363.218L1329.5 380.127L1327.47 381.632C1322.74 381.492 1317.63 382.228 1312.17 383.838C1306.71 385.448 1301.74 387.934 1297.26 391.295C1295.68 392.485 1294.18 393.746 1292.81 395.146C1291.44 396.546 1290.22 398.052 1289.2 399.732C1288.29 401.167 1287.77 402.743 1287.59 404.458C1287.42 406.174 1287.8 407.644 1288.78 408.904C1290.22 410.83 1292.08 411.775 1294.35 411.705C1296.63 411.635 1300.09 410.48 1304.85 408.274C1307.97 406.804 1310.94 405.404 1313.82 404.073C1316.69 402.743 1319.91 401.447 1323.44 400.257C1330.44 397.877 1336.47 397.281 1341.51 398.437C1346.55 399.592 1350.96 402.708 1354.78 407.749L1354.64 407.784Z" fill="white"/>
</svg>
