<?xml version="1.0" encoding="UTF-8"?>
<svg id="Layer_1" xmlns="http://www.w3.org/2000/svg" viewBox="0 0 183.65 233.58">
  <defs>
    <style>
      .cls-1 {
        fill: #424143;
      }

      .cls-2 {
        fill: #ce6f6f;
      }

      .cls-3 {
        fill: #221f20;
      }

      .cls-4 {
        fill: #a22e2a;
      }

      .cls-5 {
        fill: #797a7b;
      }
    </style>
  </defs>
  <g>
    <path class="cls-1" d="M34.78,179.33s3.16-12.36,11.21-20.98c8.05-8.62,8.05-3.45,8.05-8.62s-1.72-15.81,2.01-22.41c3.74-6.61,8.05-21.27,18.1-25.86s11.21-4.02,15.23-3.45-.86-14.08-3.45-15.52-11.55-19.43-16.84-24.9c-3.21-3.32-5.68-7.88,1.59-9.3,5.76-1.13,26.46-1.14,27.03.58s-.95,6.24-.95,6.24c0,0,7.85-.49,12.16.08s9.04,2.26,6.9,3.74-5.12,19.51-7.71,23.82c-2.59,4.31-6.66,10.37-6.37,12.38s15.23-2.01,28.45,15.81c13.22,17.82,15.04,55.2,12.47,61.35-.65,1.55,7.07,11.35,5.92,13.65s-36.69-5.98-43.59-2.82c-6.9,3.16-20.21,3.74-24.23,3.14-4.02-.6-47.42,1.99-45.98-6.92Z"/>
    <path class="cls-3" d="M73.55,108.69c.62.99-2.35,29.05-.99,31.03s7.79-33.38,15.2-36.96c0,0-2.37,5.71-.74,11.87,0,0,2.4-8.42,6.55-12.44,0,0,.27,31.94,6.2,39.73,0,0-5.07-33.72.85-38.29,0,0,4.69,9.3,11.86,20.67s17.07,20.4,17.56,20.45-15.69-23.7-21.01-34.44c-2.24-4.52-3.38-6.26-1.98-6.8,5.6-2.15,13.92,6.15,17.15,8.01,0,0-7.42-9.75-10.6-11.47-1.88-1.01,15.84,9.93,15.84,9.93-.35-1.57-16.61-17.56-22.1-14.98s-25.1-.28-35.54,7.37c-9.09,6.66-16.76,18.34-17.91,28.83-1.15,10.49,0,14.09,0,14.09,0,0,3.46-19.41,8.65-22.74,5.19-3.34,11-13.84,11-13.84Z"/>
    <path class="cls-3" d="M78.17,159.94c.78-2.48,1.1-4.78,3.19-5.64s-3.8-.86-5.64,4.9c-1.84,5.76,2.4,8.7,3.04,8.09s-1.22-5.36-.59-7.35Z"/>
    <path class="cls-3" d="M136.41,145.23c.13,1.43.47,2.66-.41,3.55s2.12-.39,1.82-3.71-3.1-3.89-3.3-3.44,1.78,2.46,1.89,3.6Z"/>
    <path class="cls-3" d="M34.74,180s14.44,1.38,15.83,2.46,25.04,1.84,28.73,0c3.69-1.84,23.35-10.91,29.81-11.98,6.45-1.08,13.98-1.38,11.22,0-2.77,1.38-14.29,4.8-9.99,6.09,4.3,1.29,21.56,1.47,23.25,3.16s9.75,3.75,11.69,3.47c3.42-.5,5.38,4.8,1.49,3.28-1.72-.67-41.96-3.25-46.11-1.86-4.15,1.38-14.46,1.92-19.89,1.65-4.2-.2-46.01.99-46.01-6.26Z"/>
    <path class="cls-3" d="M96.64,89.88s.08-12.23-.34-13.4,0,10.3-1.26,10.64-8.38-23.79-7.37-24.13,11.97-1.41,14.22-1.59c3.1-.24,14.79-1.61,14.44-3.37s-8.49-4.7-18.89-2.85c-.58.1,1.93-5.09.27-6.32-4.32-3.19-28.37-2.4-30.62.85-1.32,1.9,10.47,3.88,11.51,4.08,2.3.44,5.56-.02,7.23.31s-5.36,4.02-4.44,5.53,10.3,22.53,10.22,25.63c-.08,3.1.5,3.94.17,4.61s4.86,0,4.86,0Z"/>
    <path class="cls-5" d="M71.74,55.62c2.42,1.16,8.52,9.78,9.57,12.52s4,6.42,4,9.15-7.68-13.15-9.99-15.04-3.58-6.63-3.58-6.63Z"/>
    <path class="cls-5" d="M58.89,149.65c-.21-4,1.37-22.19,5.05-24.09s2.84-6.63,4.94-5.36-6,29.45-7.99,29.45h-2Z"/>
    <path class="cls-5" d="M48.2,178.89c.23,2.12,14.2-14.83,14.2-16.51s2.73-6,1.16-6.21-15.67,19.77-15.36,22.72Z"/>
  </g>
  <path class="cls-4" d="M96.26,97.36c-4.58.2-11.37-1.16-10.46-4.63s8.12-2.89,9.44-2.66,10.56.69,11.27,2.31-2.44,4.63-10.25,4.98Z"/>
  <path class="cls-2" d="M97.04,94.13c-4.58.09-11.65-.62-10.87-2.2,1.3-2.64,8.58-2.07,9.9-1.97s9.7.64,10.44,2.42c.39.92-1.66,1.6-9.47,1.75Z"/>
</svg>